<?xml version="1.0" ?><!DOCTYPE svg  PUBLIC '-//W3C//DTD SVG 1.1//EN'  'http://www.w3.org/Graphics/SVG/1.1/DTD/svg11.dtd'><svg enable-background="new 0 0 100 100" height="100px" id="Layer_1" version="1.1" viewBox="0 0 100 100" width="100px" xml:space="preserve" xmlns="http://www.w3.org/2000/svg" xmlns:xlink="http://www.w3.org/1999/xlink"><g><path d="M49.091,96.047c25.353,0,45.978-20.625,45.978-45.978c0-25.352-20.625-45.978-45.978-45.978   S3.112,24.717,3.112,50.069C3.112,75.422,23.738,96.047,49.091,96.047z M49.091,6.092c24.249,0,43.978,19.728,43.978,43.978   S73.34,94.047,49.091,94.047c-24.25,0-43.979-19.729-43.979-43.978S24.841,6.092,49.091,6.092z" fill="#0078C8"/><path d="M23.606,68.587l20.125,7.655c0.114,0.043,0.234,0.065,0.355,0.065c0.104,0,0.21-0.017,0.311-0.049   l23.189-7.585c0.344-0.112,0.6-0.401,0.67-0.755l7.66-38.371c0.059-0.294-0.018-0.598-0.207-0.83   c-0.19-0.231-0.474-0.366-0.773-0.366H31.622c-0.477,0-0.887,0.336-0.98,0.804l-1.699,8.496c-0.059,0.294,0.018,0.599,0.207,0.83   c0.19,0.232,0.474,0.366,0.773,0.366h33.434l-0.713,3.571H28.809c-0.477,0-0.887,0.336-0.98,0.804l-1.699,8.496   c-0.059,0.294,0.018,0.599,0.207,0.83c0.19,0.232,0.474,0.366,0.773,0.366h33.439l-1.498,7.508l-14.726,4.816l-9.477-3.604   l0.791-3.952c0.059-0.294-0.018-0.599-0.207-0.83c-0.19-0.232-0.474-0.366-0.773-0.366h-8.664c-0.477,0-0.887,0.336-0.98,0.804   l-2.033,10.167C22.886,67.936,23.149,68.414,23.606,68.587z M26.814,58.486h6.625l-0.718,3.586   c-0.096,0.479,0.168,0.958,0.625,1.131l10.598,4.031c0.214,0.082,0.449,0.087,0.666,0.016l15.617-5.108   c0.344-0.112,0.6-0.401,0.67-0.755l1.852-9.277c0.059-0.294-0.018-0.598-0.207-0.83c-0.19-0.231-0.474-0.366-0.773-0.366H28.329   l1.299-6.496h33.836c0.477,0,0.888-0.336,0.98-0.804l1.112-5.571c0.059-0.294-0.018-0.598-0.207-0.83   c-0.19-0.231-0.474-0.366-0.773-0.366H31.143l1.299-6.496h41.275L66.41,66.954l-22.298,7.293l-19.004-7.228L26.814,58.486z" fill="#0078C8"/></g></svg>